HIERARCHY
ROOT Hips
{
	OFFSET 0.000000 0.000000 0.000000
	CHANNELS 6 Xposition Yposition Zposition Zrotation Yrotation Xrotation 
	JOINT LHipJoint
	{
		OFFSET 0.000000 0.000000 0.000000
		CHANNELS 3 Zrotation Yrotation Xrotation
		JOINT LeftUpLeg
		{
			OFFSET 1.363060 -1.794630 0.839290
			CHANNELS 3 Zrotation Yrotation Xrotation
			JOINT LeftLeg
			{
				OFFSET 2.448110 -6.726130 0.000000
				CHANNELS 3 Zrotation Yrotation Xrotation
				JOINT LeftFoot
				{
					OFFSET 2.562200 -7.039590 0.000000
					CHANNELS 3 Zrotation Yrotation Xrotation
					JOINT LeftToeBase
					{
						OFFSET 0.157640 -0.433110 2.322550
						CHANNELS 3 Zrotation Yrotation Xrotation
						End Site
						{
							OFFSET 0.000000 0.000000 0.000000
						}
					}
				}
			}
		}
	}
	JOINT RHipJoint
	{
		OFFSET 0.000000 0.000000 0.000000
		CHANNELS 3 Zrotation Yrotation Xrotation
		JOINT RightUpLeg
		{
			OFFSET -1.305520 -1.794630 0.839290
			CHANNELS 3 Zrotation Yrotation Xrotation
			JOINT RightLeg
			{
				OFFSET -2.542530 -6.985550 0.000000
				CHANNELS 3 Zrotation Yrotation Xrotation
				JOINT RightFoot
				{
					OFFSET -2.568260 -7.056230 0.000000
					CHANNELS 3 Zrotation Yrotation Xrotation
					JOINT RightToeBase
					{
						OFFSET -0.164730 -0.452590 2.363150
						CHANNELS 3 Zrotation Yrotation Xrotation
						End Site
						{
							OFFSET 0.000000 0.000000 0.000000
						}
					}
				}
			}
		}
	}
}
MOTION
Frames: 25
Frame Time: 0.008333
15.696762 17.749622 1.899079 -152.156671 -85.322795 177.420783 -11.777193 3.711969 0.792245 -5.388485 4.157611 -7.488564 -0.555402 0.766633 14.643333 1.053690 4.771225 21.716462 1.929100 0.000001 -61.868200 7.956928 -0.961429 3.995954 11.537209 9.073439 -44.211352 3.043982 -0.939373 22.027949 0.081942 1.439789 -1.819838 -0.279000 -0.000001 -44.773500
15.445138 17.774092 1.865805 -154.178905 -85.322738 179.429962 -11.746243 3.711427 0.735943 -5.430256 3.614632 -6.950818 -0.458025 0.816401 15.331290 1.155201 5.577834 21.989659 2.302700 0.000000 -59.443400 7.882701 -0.941222 4.163133 11.287356 9.540322 -43.617837 3.213115 -0.610995 18.922620 0.261471 1.969800 -0.449425 -0.225700 0.000000 -46.415200
15.195304 17.786897 1.833016 -156.781111 -85.306408 -178.042397 -11.698122 3.701708 0.680588 -5.571798 3.006877 -6.463163 -0.363664 0.869004 16.336643 1.265597 6.626873 21.765202 2.764500 0.000000 -56.931801 7.831428 -0.908269 4.265051 11.059088 9.870383 -43.072990 3.328957 -0.344913 16.397117 0.403414 2.366179 0.789742 -0.168900 -0.000000 -47.747299
14.947126 17.788059 1.800907 -159.766067 -85.264332 -175.194537 -11.636465 3.683979 0.623125 -5.797175 2.373897 -6.026640 -0.270831 0.926093 17.630123 1.390111 7.886416 21.167348 3.288000 -0.000001 -54.658000 7.801265 -0.871353 4.300995 10.888241 10.062789 -42.572794 3.398476 -0.149573 14.480182 0.506692 2.633831 1.854078 -0.118400 -0.000000 -48.771100
14.700721 17.777454 1.769545 -162.797746 -85.184680 -172.361412 -11.569327 3.658360 0.551507 -6.068000 1.807271 -5.669135 -0.182032 0.990783 19.211470 1.527866 9.261215 20.292230 3.815500 0.000000 -52.651901 7.787676 -0.838547 4.282516 10.797567 10.155071 -42.105164 3.428168 -0.024454 13.159291 0.568884 2.760088 2.708310 -0.087199 0.000000 -49.431300
14.456069 17.754925 1.738923 -165.563561 -85.065479 -169.849696 -11.505664 3.626187 0.456562 -6.341775 1.385006 -5.419464 -0.099894 1.066035 21.070699 1.675515 10.659251 19.224769 4.295700 0.000000 -50.817600 7.785315 -0.815125 4.225417 10.791752 10.195138 -41.657703 3.422586 0.036590 12.398303 0.587432 2.725216 3.324674 -0.088400 0.000000 -49.671800
14.212872 17.720319 1.708812 -168.015732 -84.917557 -167.698691 -11.450504 3.590585 0.340902 -6.602055 1.115110 -5.272846 -0.022310 1.152227 23.147110 1.834694 12.064353 18.094515 4.727900 -0.000000 -49.459000 7.791018 -0.801823 4.136572 10.858507 10.199123 -41.230030 3.385660 0.038462 12.181258 0.565537 2.548424 3.659017 -0.123000 0.000000 -49.418701
13.970908 17.673338 1.679251 -169.809199 -84.745169 -166.235102 -11.416655 3.553038 0.193814 -6.781188 1.096058 -5.290842 0.045434 1.252602 25.462393 1.991143 13.349102 16.895452 5.049900 -0.000001 -48.068500 7.794897 -0.802460 4.044198 10.989075 10.250868 -40.823005 3.319641 -0.006352 12.446232 0.498275 2.195321 3.694036 -0.201300 -0.000000 -48.633900
13.729794 17.614218 1.649939 -171.190667 -84.573767 -165.203784 -11.401857 3.516624 0.032905 -6.893075 1.248249 -5.440533 0.109796 1.363808 27.926471 2.149558 14.572261 15.741147 5.309500 0.000000 -47.099300 7.797452 -0.812238 3.943372 11.164102 10.319141 -40.460063 3.229713 -0.096209 13.207957 0.395964 1.740872 3.369198 -0.300800 -0.000000 -47.262700
13.489207 17.543150 1.620855 -172.116855 -84.417206 -164.630690 -11.409572 3.482144 -0.136301 -6.913200 1.571229 -5.747585 0.170719 1.484873 30.526403 2.302994 15.698291 14.625236 5.495400 -0.000000 -46.367000 7.794662 -0.829509 3.846514 11.373839 10.428357 -40.167590 3.120340 -0.224552 14.447096 0.261880 1.214591 2.652913 -0.405500 0.000000 -45.308900
13.248743 17.460672 1.592008 -172.643281 -84.290349 -164.442707 -11.439223 3.449939 -0.302710 -6.837964 2.027554 -6.224236 0.229700 1.613557 33.241635 2.448210 16.724617 13.534047 5.609299 -0.000000 -45.772200 7.786103 -0.850907 3.758931 11.609972 10.576130 -39.979636 2.996694 -0.387588 16.158639 0.101966 0.665206 1.518211 -0.491499 -0.000000 -42.812300
13.008229 17.367644 1.563416 -172.837371 -84.205294 -164.557497 -11.488221 3.419372 -0.454751 -6.675627 2.569157 -6.880018 0.288472 1.747615 36.056265 2.583885 17.659271 12.441866 5.653001 -0.000000 -45.257601 7.773729 -0.872461 3.683326 11.865622 10.751234 -39.929944 2.863838 -0.582292 18.333382 -0.077449 0.140362 -0.042572 -0.535500 -0.000000 -39.849300
12.767627 17.265301 1.535163 -172.760613 -84.169683 -164.900535 -11.552925 3.389093 -0.582644 -6.442217 3.147833 -7.723632 0.348476 1.885395 38.960093 2.709657 18.511653 11.310630 5.624100 0.000000 -44.732300 7.761482 -0.890521 3.621193 12.134433 10.938937 -40.043322 2.726067 -0.804978 20.944017 -0.270838 -0.326047 -2.007140 -0.521099 -0.000000 -36.539000
12.527077 17.155248 1.507330 -172.463367 -84.185982 -165.410214 -11.629010 3.357124 -0.679363 -6.160304 3.716760 -8.757724 0.411446 2.025755 41.940983 2.826795 19.296970 10.109893 5.521700 -0.000000 -44.195400 7.754689 -0.902308 3.573194 12.408506 11.125220 -40.327638 2.586475 -1.050327 23.935064 -0.473417 -0.718040 -4.316403 -0.442200 -0.000000 -33.077800
12.286652 17.039496 1.480135 -171.919419 -84.252736 -166.101958 -11.713343 3.321171 -0.742022 -5.844910 4.245594 -9.989128 0.478006 2.168966 44.992874 2.935058 20.013590 8.793976 5.332400 -0.000000 -43.449700 7.756953 -0.906934 3.541377 12.688055 11.302137 -40.773973 2.449449 -1.310194 27.222377 -0.681995 -1.035421 -6.902989 -0.301801 -0.000000 -29.456000
12.047161 16.920450 1.453716 -171.140648 -84.360516 -166.965184 -11.801369 3.278130 -0.771993 -5.519699 4.703638 -11.403578 0.549795 2.315330 48.090597 3.036856 20.675442 7.357656 5.058599 0.000000 -42.568800 7.772348 -0.904552 3.524495 12.968950 11.462522 -41.344625 2.316558 -1.575365 30.685814 -0.892946 -1.294975 -9.645170 -0.112000 -0.000001 -26.025400
11.809136 16.800887 1.428366 -170.054970 -84.495453 -168.073927 -11.890029 3.225112 -0.774959 -5.195166 5.081051 -12.984836 0.627228 2.465993 51.207989 3.132409 21.277897 5.788916 4.694300 0.000000 -41.444800 7.801336 -0.897473 3.520907 13.258026 11.604158 -41.985899 2.191375 -1.835612 34.192233 -1.103081 -1.514877 -12.435780 0.113300 0.000000 -22.910401
11.573240 16.683771 1.404256 -168.612475 -84.641025 -169.485495 -11.975938 3.159343 -0.757606 -4.881645 5.372612 -14.707162 0.710887 2.621141 54.305614 3.222353 21.819030 4.105392 4.244600 0.000000 -40.124500 7.842753 -0.888839 3.526574 13.561835 11.722666 -42.634084 2.077440 -2.081712 37.607988 -1.308734 -1.709095 -15.176280 0.360900 0.000000 -20.204500
11.340190 16.572188 1.381502 -166.804046 -84.777402 -171.224921 -12.055550 3.078485 -0.730199 -4.587792 5.585409 -16.531115 0.800293 2.780564 57.335358 3.306058 22.289734 2.328637 3.716100 -0.000000 -38.593000 7.894208 -0.881970 3.533983 13.884872 11.812973 -43.215433 1.977801 -2.306279 40.808444 -1.505623 -1.886436 -17.777871 0.617901 0.000000 -18.013000
11.110569 16.469059 1.359999 -164.721535 -84.886519 -173.218368 -12.125585 2.981373 -0.701791 -4.325406 5.729054 -18.414429 0.893918 2.942671 60.243632 3.382183 22.678678 0.488899 3.120900 -0.000001 -36.857700 7.952582 -0.879704 3.535106 14.223958 11.868347 -43.661368 1.895166 -2.503444 43.688861 -1.689267 -2.047937 -20.174681 0.872900 -0.000000 -16.369500
10.885199 16.377123 1.339257 -162.668839 -84.948948 -175.193658 -12.183182 2.868684 -0.685061 -4.116408 5.820602 -20.292255 0.988689 3.105258 62.964904 3.449651 22.981514 -1.362242 2.482900 -0.000000 -35.100500 8.015824 -0.882364 3.516084 14.560813 11.875270 -43.895428 1.830776 -2.668906 46.169568 -1.853626 -2.185460 -22.315818 1.114000 0.000000 -15.347000
10.662999 16.298509 1.319166 -160.680911 -84.961786 -177.102909 -12.227890 2.742211 -0.673665 -3.957233 5.859672 -22.174146 1.079985 3.264870 65.466363 3.504300 23.169211 -3.222292 1.807401 0.000000 -33.074100 8.077014 -0.892935 3.485901 14.893445 11.850934 -43.905987 1.787032 -2.796941 48.185449 -1.999098 -2.305488 -24.176970 1.334800 -0.000000 -14.767700
10.444839 16.235052 1.298782 -159.369264 -84.908909 -178.382945 -12.257672 2.607928 -0.683917 -3.886436 5.870291 -23.965635 1.161082 3.419738 67.673833 3.545675 23.249836 -5.030718 1.128501 0.000000 -31.109700 8.137432 -0.905897 3.424052 15.178548 11.772632 -43.615502 1.762389 -2.885040 49.707080 -2.117877 -2.387572 -25.734981 1.523500 0.000000 -14.763000
10.229584 16.187865 1.277695 -158.869451 -84.794699 -178.894476 -12.272319 2.470839 -0.710509 -3.909141 5.852536 -25.656662 1.225761 3.566022 69.551685 3.571766 23.214586 -6.765925 0.464300 -0.000001 -29.201700 8.193591 -0.920402 3.335937 15.399207 11.651662 -43.019179 1.756783 -2.930041 50.717095 -2.209963 -2.431934 -26.990347 1.675300 -0.000000 -15.201300
10.016471 16.157551 1.255460 -159.320999 -84.627838 -178.506094 -12.271486 2.335180 -0.750716 -4.036315 5.805705 -27.223691 1.268026 3.699535 71.066299 3.582344 23.067251 -8.407998 -0.167000 0.000000 -27.414100 8.243903 -0.934822 3.222788 15.531982 11.491097 -42.113711 1.768811 -2.931520 51.220351 -2.274847 -2.435582 -27.952950 1.787100 -0.000000 -15.977000
